<svg id="Capa_1" data-name="Capa 1" xmlns="http://www.w3.org/2000/svg" viewBox="0 0 949 715"><defs><style>.cls-1{fill:#fff;}</style></defs><title>favicon byn</title><rect class="cls-1" width="949" height="715" rx="128.12"/><path d="M823.75,266.81l-13.26,39.76h-95.2a81.65,81.65,0,0,0-81.58,81.57V714.43A81.65,81.65,0,0,0,715.29,796h489.42a81.65,81.65,0,0,0,81.58-81.57V388.14a81.65,81.65,0,0,0-81.58-81.57h-95.2l-13.26-39.76a61,61,0,0,0-58-41.81H881.74A61,61,0,0,0,823.75,266.81ZM960,673.64a122.36,122.36,0,1,1,122.36-122.35A122.39,122.39,0,0,1,960,673.64Z" transform="translate(-485.5 -153)"/></svg>